<?xml version="1.0" encoding="UTF-8" standalone="no"?>
<svg
   width="1500"
   height="1500"
   version="1.1"
   id="svg3913"
   xmlns="http://www.w3.org/2000/svg"
   xmlns:svg="http://www.w3.org/2000/svg">
  <defs
     id="defs2" />
  <defs
     id="defs74" />
  <defs
     id="defs86" />
  <defs
     id="defs119" />
  <defs
     id="defs121" />
  <defs
     id="defs169" />
  <defs
     id="defs175" />
  <defs
     id="defs245" />
  <defs
     id="defs274" />
  <defs
     id="defs279" />
  <defs
     id="defs301" />
  <defs
     id="defs330" />
  <defs
     id="defs364" />
  <defs
     id="defs393" />
  <defs
     id="defs395" />
  <defs
     id="defs409" />
  <defs
     id="defs416" />
  <defs
     id="defs418" />
  <defs
     id="defs431" />
  <defs
     id="defs434" />
  <defs
     id="defs595" />
  <defs
     id="defs614" />
  <defs
     id="defs665" />
  <defs
     id="defs676" />
  <defs
     id="defs718" />
  <defs
     id="defs775" />
  <defs
     id="defs787" />
  <defs
     id="defs848" />
  <defs
     id="defs939" />
  <defs
     id="defs947" />
  <defs
     id="defs963" />
  <defs
     id="defs1049" />
  <defs
     id="defs1092" />
  <defs
     id="defs1099" />
  <defs
     id="defs1114" />
  <defs
     id="defs1119" />
  <defs
     id="defs1125" />
  <defs
     id="defs1138" />
  <defs
     id="defs1145" />
  <defs
     id="defs1148" />
  <defs
     id="defs1161" />
  <defs
     id="defs1164" />
  <defs
     id="defs1166" />
  <defs
     id="defs1171" />
  <defs
     id="defs1178" />
  <defs
     id="defs1193" />
  <defs
     id="defs1200" />
  <defs
     id="defs1224" />
  <defs
     id="defs1227" />
  <defs
     id="defs1230" />
  <defs
     id="defs1238" />
  <defs
     id="defs1241" />
  <defs
     id="defs1244" />
  <defs
     id="defs1248" />
  <defs
     id="defs1252" />
  <defs
     id="defs1262" />
  <defs
     id="defs1275" />
  <defs
     id="defs1282" />
  <defs
     id="defs1288" />
  <defs
     id="defs1291" />
  <defs
     id="defs1356" />
  <defs
     id="defs1363" />
  <defs
     id="defs1542" />
  <defs
     id="defs1660" />
  <defs
     id="defs1721" />
  <defs
     id="defs1752" />
  <defs
     id="defs1832" />
  <defs
     id="defs1834" />
  <defs
     id="defs1852" />
  <defs
     id="defs1878" />
  <defs
     id="defs1900" />
  <defs
     id="defs1902" />
  <defs
     id="defs1909" />
  <defs
     id="defs1935" />
  <defs
     id="defs1942" />
  <defs
     id="defs1951" />
  <defs
     id="defs1971" />
  <defs
     id="defs1976" />
  <defs
     id="defs1999" />
  <defs
     id="defs2017" />
  <defs
     id="defs2042" />
  <defs
     id="defs2053" />
  <defs
     id="defs2062" />
  <defs
     id="defs2065" />
  <defs
     id="defs2087" />
  <defs
     id="defs2099" />
  <defs
     id="defs2105" />
  <defs
     id="defs2112" />
  <defs
     id="defs2114" />
  <defs
     id="defs2122" />
  <defs
     id="defs2125" />
  <defs
     id="defs2148" />
  <defs
     id="defs2150" />
  <defs
     id="defs2153" />
  <defs
     id="defs2157" />
  <defs
     id="defs2161" />
  <defs
     id="defs2166" />
  <defs
     id="defs2172" />
  <defs
     id="defs2174" />
  <path
     fill="#222121"
     d="m 14.467658,1351.9594 c 3.04917,3.006 5.3574,6.09 8.00582,9.428 2.82788,3.565 4.71528,7.001 6.22808,11.268 4.3092,-0.284 10.0854,-1.071 13.6681,1.773 l -1.901,2.409 c 2.1613,0.678 3.2298,-1.011 5.3133,-1.176 1.7734,-0.14 5.6115,2.155 7.2722,2.925 5.1744,-2.349 8.202,-2.94 13.7817,-2.927 l 0.485,0.894 1.9818,3.38 c 4.1314,-0.382 8.9731,2.287 12.2717,4.747 1.5755,1.175 2.72,3.304 4.0108,4.798 1.5439,1.787 3.0856,2.533 4.7551,3.993 1.6095,1.408 2.525,3.05 4.4369,4.167 2.9629,3.082 5.724302,6.257 9.530902,8.309 l 2.0785,-1.155 c 2.6841,1.309 5.3354,1.985 6.7302,4.819 l 0.1977,0.699 c 1.2702,2.342 2.3522,3.904 5.1882,4.647 0.925,0.243 1.215,0.139 2.05,0.027 l 2.342,1.925 c 0.052,0.966 -0.244,2.375 0.589,3.001 1.187,0.89 2.818,1.081 4.24,1.393 l 1.673,1.715 c 1.901,0.544 3.959,0.577 5.744,1.316 l 1.195,-0.753 2.562,-1.194 c 3.407,0.073 4.304,0.465 7.04,2.247 1.299,0.847 2.66,0.649 4.148,0.621 l 1.257,1.491 -0.556,2.128 3.546,2.545 c 1.076,0.427 3.203,0.943 4.056,1.61 0.268,0.21 1.318,1.784 1.465,1.83 0.769,0.24 1.554,-0.431 2.331,-0.646 1.208,0.907 2.809,2.605 4.295,2.68 2.466,0.123 4.205,0.497 6.504,1.384 1.968,1.446 2.813,1.938 5.247,2.135 1.011,-0.371 2.015,-0.802 3.065,-1.045 l -0.605,-2.661 1.52,-1.166 c 1.633,-0.387 2.772,-1.06 4.223,-1.86 l 1.011,0.34 c 1.476,0.556 0.945,0.268 2.072,1.491 l 0.778,-0.332 c 1.262,-0.43 1.998,-0.221 3.257,0.04 1.588,-1.209 1.79,-1.385 3.761,-1.544 l 4.409,3.798 -0.604,1.847 -2.81,1.837 -1.523,0.654 0.07,1.262 c 0.075,1.562 0.113,0.943 -0.048,2.135 l -0.046,0.524 3.591,1.471 c 1.148,-1.054 2.099,-1.034 3.588,-1.397 l 1.69,0.148 0.551,-1.318 c 1.3,-0.694 2.549,-1.077 3.963,-1.479 1.003,0.261 1.933,0.509 2.884,0.933 l 0.659,0.314 3.515,-2.404 c 1.843,-1.702 4.291,-3.049 5.378,-5.388 l 0.49,-1.148 4.153,-1.254 c 1.69,-1.017 5.838,-0.732 8.312,-1.102 1.297,-0.721 2.553,-1.807 3.645,-2.82 l 0.508,-0.491 2.922,3.225 4.15,-2.776 c 2.853,1.587 3.777,2.096 4.914,5.34 0.301,0.857 0.367,1.803 0.465,2.697 1.562,-0.131 2.211,-1.096 3.296,-1.272 2.178,-0.353 4.221,1.238 5.71,2.603 l 8.1,8.1 2.303,1.736 1.831,-1.479 c 1.577,0.438 1.786,0.361 3.364,-0.122 2.883,-1.096 6.087,-2.656 9.087,-1.456 l 1.265,3.475 c 2.616,0.996 6.96,-1.148 9.454,-2.207 l 0.634,-0.274 c 1.391,0.83 1.028,0.473 1.989,1.484 l 0.574,0.641 c 1.336,-0.412 2.079,-0.865 3.079,-1.814 l 1.019,-0.987 c 1.71,-0.049 2.883,-0.315 4.196,-1.477 l 0.495,-0.486 0.733,1.31 c 1.625,-1.703 1.832,-0.86 3.662,-1.713 0.991,-0.462 2.594,-2.452 3.462,-3.273 l 1.179,-0.453 2.598,1.282 1.55,-0.692 0.421,-3.426 1.392,-0.441 1.849,1.972 c 3.388,-0.3 5.951,-2.962 9.155,-4.282 l 1.828,1.324 1.773,-0.89 c 1.709,-0.012 3.037,-0.355 4.671,-0.796 1.533,-1.073 3.071,-1.999 3.786,-3.811 l 0.405,-1.133 0.848,-0.062 c 1.578,0.826 2.577,0.973 4.325,1.175 2.043,0.237 3.428,1.502 5.069,2.598 l 6.268,4.091 1.231,-1.886 1.29,-0.415 c 1.932,-0.929 0.193,-0.905 2.564,-0.453 l 2.154,3.375 c 1.548,-1.316 2.388,-2.118 4.438,-2.535 0.451,0.333 1.139,0.879 1.654,1.07 1.317,0.49 2.018,0.287 3.259,-0.213 l 0.732,-3.718 c 1.635,1.733 3.573,3.376 6.086,3.609 0.59,0.055 1.317,-0.073 1.907,-0.154 l 2.097,1.941 c -0.48,1.496 -1.875,2.168 -1.642,3.418 0.228,1.22 0.192,0.73 0.054,1.959 l 0.867,0.849 0.275,1.823 0.657,-3.905 1.632,-1.033 c 2.194,1.188 4.332,2.265 6.645,3.203 1.257,0.51 1.695,0.879 2.541,1.893 l 6.076,4.097 c -1.013,2.228 -1.783,4.252 -3.395,6.131 l 0.331,0.998 c -2.255,0.363 -4.348,0.224 -6.493,0.449 l -2.043,0.633 0.869,0.55 c 1.221,0.81 0.777,0.438 1.705,1.57 0.849,2.542 3.471,4.562 5.345,6.417 2.003,0.484 3.621,0.797 5.265,2.134 l 1.313,-0.026 c 3.123,0.026 6.511,1.686 9.06,3.408 l 2.472,2.383 -0.022,1.865 1.093,2.225 5.527,0.531 1.243,-1.169 c 0.694,-0.935 1.497,-1.545 2.385,-2.287 l 2.813,1.267 4.654,0.17 c 2.165,1.141 4.234,1.984 6.572,2.705 l -0.087,-2.651 c 0.224,-3.083 2.044,-6.11 4.363,-8.067 2.002,0.316 2.247,1.024 3.61,2.398 1.795,1.112 3.639,1.638 5.638,2.248 l 0.665,0.558 c 2.691,-0.234 4.855,0.133 6.831,-1.838 l -0.747,-0.957 -0.606,-1.371 -2.354,-0.879 0.142,-0.542 4.135,-0.285 c 3.581,0.282 4.285,-2.153 7.477,1.039 l 0.839,1.055 3.303,-0.01 1.465,-2.197 c 1.679,-0.282 2.542,0.102 4.094,0.735 l 2.125,1.585 c 1.663,-0.644 0.979,-0.116 1.979,-1.475 0.835,-1.134 1.768,-2.073 2.789,-3.043 0.717,1.076 0.85,1.367 1.095,2.56 l 1.461,0.944 c 1.875,-0.656 3,-1.383 5.004,-0.574 l 2.32,1.322 c 0.849,-0.058 1.744,0.105 2.548,-0.174 0.932,-0.324 2.033,-2.388 2.945,-2.645 1.002,-0.282 3.151,2.553 4.028,2.868 0.669,0.24 1.413,0.161 2.119,0.241 1.223,-0.464 0.838,-0.442 1.906,-0.491 1.871,-0.086 3.067,-0.19 4.862,-0.915 0.688,-2.463 0.27,-2.717 -0.723,-4.979 l 2.544,0.66 2.488,1.186 0.598,1.948 0.632,0.925 c 0.673,1.044 0.987,1.804 1.322,2.977 l 2.179,-0.229 c -1.249,1.779 -2.333,3.101 -3.967,4.531 l -1.875,1.409 -2.197,-1.644 -1.076,0.71 c -1.951,1.221 -4.025,1.15 -6.248,1.097 0.276,1.794 1.663,1.896 1.953,4.14 l 0.244,4.649 c 1.459,0.972 4.05,2.251 5.86,2.197 l 1.827,-0.45 c 1.804,-0.326 2.235,-0.156 3.785,0.654 2.131,1.796 3.318,2.648 6.106,3.04 l 1.144,-0.511 c 1.236,-0.537 2.267,-0.711 3.617,-0.804 l 14.705,11.611 c 1.487,-0.422 2.496,-1.721 3.606,-2.77 1.377,0.522 1.756,0.619 3.296,0.534 l 0.447,-1.938 c 4.268,0.2 7.649,1.059 11.686,2.295 3.268,-2.1 7.964,-4.234 11.984,-3.18 0.772,0.202 1.156,0.484 1.883,0.883 l 4.395,-0.887 0.587,0.574 0.871,0.829 0.901,0.908 c 2.196,2.132 6.091,4.567 9.062,4.631 l 0.683,-0.414 c 1.885,-1.103 3.603,-2.142 5.84,-1.446 2.613,0.812 7.154,3.751 9.589,3.87 0.308,0.015 2.1,-0.954 2.432,-1.1 3.525,-1.563 5.43,-2.631 9.327,-1.598 2.338,-2.98 2.411,-1.232 4.626,-2.741 1.577,-1.075 3.318,-3.251 4.714,-4.62 l 0.97,0.682 c 4.599,3.177 9.637,3.328 15.126,3.129 4.459,-0.161 12.164,5.772 15.184,8.825 3.419,3.457 6.348,7.092 10.231,10.083 0.788,0.606 1.124,1.044 1.537,1.943 l 0.857,0.265 c 1.387,0.373 2.629,0.425 4.054,0.503 3.117,2.127 4.818,4.739 6.932,7.781 -0.454,1.32 -2.689,2.035 -3.935,2.724 3.387,0.532 5.857,0.889 8.752,2.896 0.94,0.652 0.474,0.414 1.774,0.667 l -0.103,-1.514 1.397,0.307 2.057,4.128 c 2.206,1.047 4.5,2.327 6.799,3.137 1.763,0.621 3.675,0.503 5.409,1.288 2.595,1.174 4.477,3.359 6.814,4.915 3.13,2.083 8.455,4.775 12.126,5.699 1.143,2.524 2.088,5.06 4.069,7.058 l 3.199,-1.334 c 1.43,0.246 2.432,0.422 3.759,1.044 l 0.897,-0.267 0.24,0.287 c 1.546,1.451 1.676,1.776 3.743,2.047 l 3.106,1.089 c 0.957,-1.697 1.537,-2.352 3.279,-3.299 1.877,-1.019 2.036,-0.656 4.116,-0.063 l 3.509,-3.267 -1.45,-2.532 2.09,-2.976 -0.854,-0.98 -1.464,1.384 -1.791,-1.503 c 0.669,-1.211 1.204,-2.362 1.678,-3.662 l -0.254,-1.256 c 1.412,-0.391 2.258,-0.811 3.43,-1.689 l -0.253,-2.468 c 1.065,1.48 0.914,1.623 2.683,1.912 l 3.228,-2.771 1.08,-0.922 c 2.055,-0.378 4.82,-1.225 6.821,-0.386 l 0.956,0.458 c 0.957,-0.618 1.634,-1.102 2.376,-1.99 l 0.553,-0.712 2.508,0.882 c 2.399,-1.874 4.605,-3.853 7.519,-4.857 2.991,-0.865 7.913,-2.936 10.944,-2.29 l 1.064,1.867 c 0.68,-0.499 1.196,-1.111 1.769,-1.726 l -0.836,-1.264 c 2.266,-1.397 2.777,-3.285 5.593,-4.398 1.811,-0.716 2.611,-1.884 3.912,-3.306 l 2.497,-2.234 c 0.539,0.891 0.784,1.388 1.651,1.996 l 1.188,-1.946 c 1.651,-0.49 3.197,-0.968 4.692,-1.845 l 1.084,-0.652 1.716,0.72 1.518,-1.162 c -1.642,-1.753 -1.803,-2.034 -2.28,-4.385 l 1.081,-1.586 c 1.641,0.031 2.744,0.101 4.302,-0.484 1.828,-0.687 3.605,-1.178 5.495,-1.667 l 3.039,-2.25 0.665,-0.476 0.005,-1.227 1.665,-0.669 1.265,1.51 0.566,0.757 c 1.514,-0.665 2.776,-1.544 4.148,-2.454 1.34,-0.025 0.775,-0.094 2.161,0.234 l 1.008,0.255 1.473,-1.573 1.831,0.101 c 1.129,-0.865 1.735,-1.368 2.402,-2.669 0.637,-1.241 0.377,-1.228 0.032,-2.45 1.314,-0.865 0.894,-0.69 2.102,-1.187 l 0.722,-0.278 -0.125,-2.198 c 2.125,-0.802 3.812,-0.21 6.036,0.111 l 2.883,-3.042 0.638,0.91 c 1.992,-2.105 2.276,-1.97 5.004,-2.418 0.978,0.927 1.657,1.612 2.239,2.835 l 0.699,0.434 1.117,-1.423 c 0.533,-2.684 1.018,-4.091 2.793,-6.196 1.313,-0.246 2.075,-0.48 3.247,-1.186 l 0.972,-0.631 2.198,1.644 2.287,-1.551 2.454,-2.543 c 1.962,-2.027 4.562,-5.457 7.252,-6.403 l 1.006,-0.316 c 0.402,-1.902 0.63,-2.809 2.015,-4.203 1.638,-0.361 2.88,-0.692 4.538,-0.2 1.791,0.531 3.401,0.78 5.252,1.014 l 0.622,-0.273 c 1.92,-0.857 5.41,-3.551 7.131,-3.857 1.526,-0.271 6.681,0.954 8.092,1.496 2.099,0.805 3.987,1.884 6.143,2.579 1.602,0.516 2.458,1.296 3.745,2.351 1.444,-0.066 1.895,-0.213 3.162,-0.785 1.21,-0.911 2.372,-1.797 3.494,-2.814 0.951,-0.862 2.076,-1.288 3.231,-1.821 l 1.465,2.016 c 2.02,-1.119 1.482,-3.322 3.662,-3.189 l 1.099,1.298 c 4.002,-0.988 6.929,-2.057 10.62,0.757 l 0.756,0.905 -0.185,1.796 1.248,0.471 0.759,0.295 1.642,0.526 c 1.036,0.429 1.389,1.034 2.068,1.863 2.776,3.393 4.163,5.228 8.361,6.811 2.212,0.835 4.09,1.826 5.859,3.385 l 2.197,-1.962 c 1.258,0.563 1.646,1.732 2.197,1.965 0.908,0.383 3.357,-0.726 4.395,-0.439 2.842,0.788 2.082,2.629 5.96904,2.558 l 1.721,-1.145 c 2.052,0.763 4.083,1.681 5.705,3.192 3.092,2.883 7.691,12.097 12.081,11.641 2.5,-0.26 5.98,1.186 8.65,1.364 2.11,0.141 2.97,0.546 4.67,1.758 l 0.02,0.846 -0.87,-0.085 c -1.17,-0.104 -2,-0.147 -3.14,0.157 -1.83,0.49 -3.8,0.427 -5.69,0.491 l -0.55,1.123 c 2.51,1.423 7.15,0.45 10.25,1.45 0.9,0.292 1.68,0.358 2.63,0.357 -0.18,1.124 -0.38,1.84 -0.8,2.929 2.38,3.087 4.47,1.42 7.15,3.662 l -1.09,1.831 0.9,1.017 1.83,-1.62 c 0.75,2.239 -1.12,2.604 -0.12,5.154 1.72,1.453 3.52,2.819 4.88,4.622 l 1.13,-0.067 c 1.49,-0.01 2.03,0.255 3.27,0.984 l 0.49,2.362 1.19,0.366 1.61,-1.062 c 1.34,0.536 1.93,0.729 2.56,2.16 l 0.44,1.367 0.97,0.511 c 2.77,1.606 4.45,5.504 5.77,8.285 l 1.62,1.555 c 2.05,-0.163 3.85,-0.442 5.86,-0.938 l 1.61,0.711 0.95,-0.456 1.55,1.87 0.86,-0.023 c 2.62,0.263 4.99,2.794 6.74,4.571 l 1.48,-0.973 3.29,3.908 c 1.42,1.717 2.35,3.028 3.29,5.075 l 1.13,-0.194 h 1.27 c 0.88,1.008 1.35,1.623 1.85,2.87 0.67,1.656 1.83,2.68 3.08,3.917 l -1.03,2.368 0.84,1.831 c 3.22,0.991 2.21,1.271 4.58,3.3 0.2,0.175 2.61,0.31 3.06,0.362 l 1.3,2.517 c 0.54,2.048 0.75,1.821 2.64,2.918 l 5.08,2.855 1.47,-0.928 c 2.99,1.173 3.44,1.004 5.22,3.785 l 3.23,-0.16 1.8,1.84 2.12,-0.652 1.39,-1.368 h -1.86 l -1.28,0.549 -0.37,-1.282 v -1.098 l -0.65,-0.507 c -2.26,-0.35 -2.67,-0.462 -4.45,-1.874 l 0.71,-1.068 c 1.14,1.122 1.31,1.33 2.93,1.749 l 1.78,-1.835 0.55,-0.656 c 1.5,0.708 2.82,1.731 4.46,1.492 1.88,-0.274 3.49,0 5.29,0.552 l 0.78,-0.817 3.25,-2.869 0.72,0.054 c 1.92,0.117 3.61,0.258 5.23,-0.996 0.63,-0.48 0.97,-0.952 1.45,-1.538 1.72,0.067 1.86,0.066 3.22,1.091 l 2.2,-2.038 1.77,0.095 1.62,2.576 1.37,0.141 c 1.83,-1.81 2.18,-2.46 4.76,-2.997 7.88,3.772 16.25,10.618 23.33,15.853 3.94,2.912 5.58,4.898 10.49,6.226 1.91,0.517 4.52,1.669 5.76,3.317 0.49,0.646 0.59,1.467 0.7,2.239 l 1.19,0.305 c 1.63,0.433 3.07,1.111 4.6,1.822 l -0.67,1.18 c 1.44,0.722 2.52,1.33 3.74,2.364 1.3,1.098 1.27,0.624 2.5,1.22 1.1,0.532 1.75,0.991 2.93,1.465 1.37,0.55 1.73,1.047 2.57,2.201 1.01,1.399 1.12,1.443 2.56,2.194 1.12,0.587 1.28,1.756 1.74,2.782 0.52,1.176 1.37,1.856 2.29,2.715 v 2.197 h 1.09 l 0.73,-1.099 c 1.12,-0.38 1.08,-0.615 2.2,0 l 2.57,2.568 v 3.662 l 1.82,1.457 1.47,-0.179 c 1.42,0.71 1.18,0.701 1.83,2.018 l -2.19,0.366 -0.19,1.095 c 1.43,0.403 2.04,0.342 3.48,0.183 l 0.37,0.553 -0.37,0.915 c -0.19,0.768 1.36,2.453 1.83,3.106 l 1.47,0.557 c 0.22,1.253 0.15,1.853 0.97,2.873 0.74,-1.39 0.55,-1.84 2.14,-2.328 l 1.29,-0.362 1.09,0.72 c 1.07,0.54 1.37,0.31 2.57,1.11 l 1.09,2.93 c 1.38,1.21 2.24,1.98 4.03,2.56 l 0.91,-0.37 c -0.5,-1 -0.97,-1.68 -1.65,-2.56 l 0.37,-0.73 0.81,0.9 c 1.6,1.76 3.29,3.9 5.42,4.96 0,1.41 0.31,1.51 -0.73,2.56 0,1.56 -0.41,2.15 0.73,3.29 2.29,-1.83 3.39,-1.6 6.27,-1.85 1.01,1.73 2.2,1.8 3.63,2.92 3.49,2.73 4.61,4.5 4.26,8.83 3.17,2.69 6.81,5.36 9.61,8.42 2.98,3.26 4.88,6.99 8.78,9.33 3.2,2.06 4.35,3.39 5.99,6.81 0.74,1.51 1.48,2.21 2.75,3.27 l 0.46,3.44 2.33,-0.25 0.47,0.58 c 2.11,2.57 8.73,7.95 8.91,10.94 l 3.12,0.17 c 1.36,1.64 2.51,5.32 4.26,5.99 l 1.41,-1.42 5.68,3.8 1.23,0.93 1.13,0.36 c 2.79,0.46 4.99,-2.2 7.06,-3.85 1.67,-0.9 3.41,-0.86 5.22,-1.31 l 2.58,-0.62 1.28,-2.27 -0.21,-1.82 0.94,-1.02 2.66,1.11 1.08,0.39 0.95,0.67 c 1.17,0.91 1.48,1.45 2.06,2.76 1.68,1.02 3.09,0.87 4.97,0.83 -0.33,1.01 -0.59,1.64 -1.16,2.56 1.51,1.21 1.54,0.94 3.35,1.02 0.8,-0.88 1.48,-1.72 2.19,-2.67 0.83,-1.11 1.05,-1.15 2.21,-1.75 l 2.42,-1.36 0.63,1.1 c -0.78,0.83 -1.52,1.53 -2.44,2.2 1.04,0.98 0.45,0.77 1.58,0.84 1.89,0.11 3.35,0.28 5.14,0.99 l -0.15,2.56 1.24,0.56 1.83,-1.23 0.87,0.6 c 2.59,1.64 5.26,1.11 8.19,0.94 l 0.79,-1.56 c 0.05,-1.06 0.37,-1.98 0.65,-3 l 0.51,0.85 c 0.49,0.85 0.79,1.55 1.08,2.48 0.94,-0.63 0.51,-0.15 0.83,-1.73 l 1.23,0.26 -0.41,2.22 1.5,-0.08 c 1.25,-0.06 2.21,-0.01 3.44,0.28 l 1.8,0.4 0.61,-0.87 c 3.39,-0.82 3.33,-0.6 6.37,1.19 2.06,-4.11 1.56,-8.98 1.65,-13.49 v -9.1 c -2.38,-0.78 -4.35,-0.74 -6.84,-0.68 l -1.03,0.04 c -2.09,-1.44 -1.88,-2.75 -2.45,-5.16 l 0.15,-1.11 -1.83,-0.99 c -2.81,-0.15 -4.94,-0.52 -7.38,-1.95 l -0.21,-1.1 2.93,-0.67 0.39,-1.16 -3.65,-5.49 0.33,-0.9 c 1.33,1 2.67,1.79 4.23,2.39 7.82,3.01 16.42,-0.46 23.48,-3.81 l 0.79,-0.88 c 3.87,-4.12 3.91,-6.3 4.22,-11.72 -4.03,-2.21 -13.03,-2.02 -15.87,-5.14 -0.1,-0.11 -0.23,-1.36 -0.35,-1.54 -0.92,-1.47 -3.04,-3.2 -4.27,-4.49 1.51,-0.39 3.24,-1.24 4.69,-0.67 3.3,1.32 8.19,-0.42 10.18,2.22 l 1.82,-1.19 1.52,-1.08 12.3,-1.65 c 5.55,-0.96 12.44,-10.376 15.65,-14.816 l 0.74,-1.034 1.11,0.961 c 0.66,-2.197 1.71,-2.803 3.37,-4.339 5.12,0.02 11.28,0.685 16.23,-0.473 1.4,-1.824 1.32,-4.093 1.54,-6.304 l 1.39,-0.459 c 1.36,0.928 1.46,0.797 2.2,2.398 4.73,10.179 14.64,16.406 24.99,20.096 3.89,1.38 7.93,1.24 11.99,0.82 v 14.93 14.09 22.19 12.11 137.15 6.63 10.34 9.97 5.23 261.13 H 14.467658 v -301.3 -11.49 -42.22 -3.56 -10.93 -6.63 -0.52 -19.37 -16.52 -3.2 -4.76 -7.84 -10.16 -0.81 -7.9 -131.778 -4.219 -50.413 -3.956 -27.003 -6.372 -17.589 -9.411 -10.733 -4.153 -0.598 -6.78 -7.698 z"
     id="path2186" />
  <defs
     id="defs2503" />
  <defs
     id="defs2581" />
  <defs
     id="defs2648" />
  <defs
     id="defs2664" />
  <defs
     id="defs2668" />
  <defs
     id="defs2697" />
  <defs
     id="defs2706" />
  <defs
     id="defs2713" />
  <defs
     id="defs2740" />
  <defs
     id="defs2794" />
  <defs
     id="defs2828" />
  <defs
     id="defs2832" />
  <defs
     id="defs2848" />
  <defs
     id="defs2852" />
  <defs
     id="defs2900" />
  <defs
     id="defs2902" />
  <defs
     id="defs2908" />
  <defs
     id="defs2910" />
  <defs
     id="defs2943" />
  <defs
     id="defs2946" />
  <defs
     id="defs2952" />
  <defs
     id="defs2989" />
  <defs
     id="defs3003" />
  <defs
     id="defs3009" />
  <defs
     id="defs3012" />
  <defs
     id="defs3019" />
  <defs
     id="defs3022" />
  <defs
     id="defs3088" />
  <defs
     id="defs3114" />
  <defs
     id="defs3116" />
  <defs
     id="defs3118" />
  <defs
     id="defs3120" />
  <defs
     id="defs3155" />
  <defs
     id="defs3210" />
  <defs
     id="defs3219" />
  <defs
     id="defs3309" />
  <defs
     id="defs3311" />
  <defs
     id="defs3321" />
  <defs
     id="defs3323" />
  <defs
     id="defs3346" />
  <defs
     id="defs3348" />
  <defs
     id="defs3357" />
  <defs
     id="defs3371" />
  <defs
     id="defs3373" />
  <defs
     id="defs3375" />
  <defs
     id="defs3386" />
  <defs
     id="defs3453" />
  <defs
     id="defs3469" />
  <defs
     id="defs3474" />
  <defs
     id="defs3479" />
  <defs
     id="defs3503" />
  <defs
     id="defs3520" />
  <defs
     id="defs3547" />
  <defs
     id="defs3576" />
  <defs
     id="defs3621" />
  <defs
     id="defs3635" />
  <defs
     id="defs3640" />
  <defs
     id="defs3662" />
  <defs
     id="defs3686" />
  <defs
     id="defs3694" />
  <defs
     id="defs3722" />
  <defs
     id="defs3760" />
  <defs
     id="defs3770" />
  <defs
     id="defs3777" />
  <defs
     id="defs3786" />
  <defs
     id="defs3797" />
  <defs
     id="defs3813" />
  <defs
     id="defs3829" />
  <defs
     id="defs3848" />
  <defs
     id="defs3858" />
  <defs
     id="defs3868" />
  <defs
     id="defs3882" />
  <defs
     id="defs3884" />
  <defs
     id="defs3886" />
  <defs
     id="defs3897" />
  <defs
     id="defs3899" />
</svg>
